name C:\Users\u0101727\Documents\MyRepositories\predictivesimulations\OpenSimModel\subject1\EMG\EMG_gait_23.mot
datacolumns 25
datarows 13
range 1.19800000 1.21000000
endheader
time	HamL_r	TA_r	PerL_r	GL_r	HamM_r	Sol_r	VL_r	VM_r	PerB_l	TA_l	PerL_l	GL_l	GM_l	Sol_l	VL_l	VM_l	AddL_l	RF_l	TFL_l	GluMed_l	HamL_l	HamM_l	GluMed_r	RF_r	
          1.19800000	          0.00451339	          0.00408702	          0.05648597	          0.00338414	          0.00998214	          0.07406901	          0.00630426	          0.00367217	          0.01041149	          0.04975147	          0.01387921	          0.00749610	          0.02721821	          0.00927154	          0.00464531	          0.00431509	          0.00636327	          0.00489410	          0.00900958	          0.00617043	          0.00987645	          0.00799295	          0.02838286	          0.00587640	
          1.19900000	          0.00450527	          0.00409838	          0.05680484	          0.00337244	          0.00990331	          0.07438119	          0.00634298	          0.00366666	          0.01034287	          0.04914077	          0.01376484	          0.00749804	          0.02707555	          0.00916289	          0.00462727	          0.00437117	          0.00637844	          0.00485093	          0.00886101	          0.00623133	          0.01005262	          0.00840698	          0.02875620	          0.00592654	
          1.20000000	          0.00449659	          0.00411069	          0.05713195	          0.00336031	          0.00981985	          0.07465776	          0.00638427	          0.00366237	          0.01027023	          0.04852428	          0.01365600	          0.00750256	          0.02692987	          0.00905426	          0.00461175	          0.00443025	          0.00639200	          0.00480728	          0.00871761	          0.00629503	          0.01022467	          0.00884733	          0.02910962	          0.00598058	
          1.20100000	          0.00448750	          0.00412385	          0.05746820	          0.00334781	          0.00973134	          0.07489999	          0.00642754	          0.00365935	          0.01019339	          0.04790384	          0.01355313	          0.00750957	          0.02678231	          0.00894581	          0.00459905	          0.00449236	          0.00640394	          0.00476343	          0.00858004	          0.00636153	          0.01039164	          0.00931458	          0.02944067	          0.00603856	
          1.20200000	          0.00447815	          0.00413777	          0.05781507	          0.00333503	          0.00963749	          0.07510916	          0.00647218	          0.00365767	          0.01011221	          0.04728082	          0.01345653	          0.00751901	          0.02663377	          0.00883768	          0.00458944	          0.00455752	          0.00641441	          0.00471968	          0.00844894	          0.00643083	          0.01055248	          0.00980927	          0.02974714	          0.00610046	
          1.20300000	          0.00446876	          0.00415232	          0.05817431	          0.00332206	          0.00953815	          0.07528693	          0.00651753	          0.00365739	          0.01002656	          0.04665644	          0.01336638	          0.00753078	          0.02648501	          0.00872997	          0.00458318	          0.00462575	          0.00642365	          0.00467630	          0.00832492	          0.00650288	          0.01070610	          0.01033188	          0.03002733	          0.00616622	
          1.20400000	          0.00445954	          0.00416740	          0.05854742	          0.00330903	          0.00943333	          0.07543504	          0.00656297	          0.00365860	          0.00993624	          0.04603195	          0.01328268	          0.00754476	          0.02633663	          0.00862278	          0.00458050	          0.00469702	          0.00643196	          0.00463355	          0.00820859	          0.00657755	          0.01085143	          0.01088285	          0.03028020	          0.00623574	
          1.20500000	          0.00445068	          0.00418292	          0.05893558	          0.00329606	          0.00932340	          0.07555483	          0.00660787	          0.00366140	          0.00984112	          0.04540858	          0.01320527	          0.00756080	          0.02618906	          0.00851614	          0.00458157	          0.00477129	          0.00643965	          0.00459171	          0.00810052	          0.00665465	          0.01098743	          0.01146258	          0.03050525	          0.00630888	
          1.20600000	          0.00444240	          0.00419879	          0.05933988	          0.00328324	          0.00920905	          0.07564715	          0.00665177	          0.00366587	          0.00974112	          0.04478738	          0.01313388	          0.00757870	          0.02604252	          0.00840999	          0.00458652	          0.00484848	          0.00644700	          0.00455107	          0.00800120	          0.00673391	          0.01111303	          0.01207142	          0.03070232	          0.00638552	
          1.20700000	          0.00443493	          0.00421501	          0.05976164	          0.00327068	          0.00909116	          0.07571258	          0.00669430	          0.00367205	          0.00963630	          0.04416915	          0.01306810	          0.00759823	          0.02589714	          0.00830427	          0.00459541	          0.00492850	          0.00645429	          0.00451197	          0.00791102	          0.00681500	          0.01122721	          0.01270969	          0.03087145	          0.00646552	
          1.20800000	          0.00442848	          0.00423161	          0.06020247	          0.00325846	          0.00897058	          0.07575148	          0.00673515	          0.00367995	          0.00952690	          0.04355429	          0.01300745	          0.00761909	          0.02575308	          0.00819894	          0.00460828	          0.00501118	          0.00646177	          0.00447470	          0.00783033	          0.00689754	          0.01132906	          0.01337770	          0.03101302	          0.00654867	
          1.20900000	          0.00442320	          0.00424866	          0.06066417	          0.00324663	          0.00884811	          0.07576373	          0.00677393	          0.00368954	          0.00941331	          0.04294282	          0.01295139	          0.00764093	          0.02561045	          0.00809400	          0.00462507	          0.00509636	          0.00646970	          0.00443955	          0.00775943	          0.00698113	          0.01141786	          0.01407571	          0.03112769	          0.00663471	
          1.21000000	          0.00441923	          0.00426626	          0.06114847	          0.00323525	          0.00872447	          0.07574869	          0.00681026	          0.00370075	          0.00929609	          0.04233430	          0.01289941	          0.00766331	          0.02546924	          0.00798956	          0.00464572	          0.00518387	          0.00647827	          0.00440675	          0.00769860	          0.00706537	          0.01149317	          0.01480387	          0.03121627	          0.00672332	
